<svg width="344" height="43" viewBox="0 0 344 43" fill="none" xmlns="http://www.w3.org/2000/svg">
<g id="Group 3806">
<g id="Group 3801">
<g id="Group 3757">
<path id="Subtract" fill-rule="evenodd" clip-rule="evenodd" d="M132.615 6.61743C135.17 5.93626 138.065 6.95802 138.065 6.95802L138.916 0.997767C138.916 0.997767 131.593 -1.55663 126.485 1.50864C121.678 4.39282 121.705 9.99571 121.725 10.6477H130.106C130.115 10.1817 130.265 7.2441 132.615 6.61743ZM112.078 19.2136L136.175 11.025L134.979 19.3829L128.888 19.2136L125.667 42.2086H117.289L120.511 19.2136H112.078Z" fill="#474747"/>
<path id="Vector" d="M294.259 42.3374L298.421 12.4366H306.142L305.157 19.6106L304.719 18.5701C305.741 16.0509 307.055 14.3533 308.662 13.4771C310.304 12.5643 312.166 12.108 314.247 12.108H316L315.014 19.2272H312.44C310.432 19.2272 308.716 19.8661 307.292 21.1439C305.905 22.4217 305.029 24.3019 304.664 26.7846L302.528 42.3374H294.259Z" fill="#474747"/>
<path id="Vector_2" d="M277.373 42.9944C274.343 42.9944 271.714 42.3555 269.487 41.0777C267.26 39.7634 265.544 37.9927 264.339 35.7657C263.171 33.5386 262.587 31.0743 262.587 28.3726C262.587 26.0725 262.989 23.9368 263.792 21.9653C264.595 19.9573 265.727 18.1866 267.187 16.6532C268.647 15.1199 270.345 13.9333 272.28 13.0936C274.215 12.2174 276.314 11.7793 278.578 11.7793C281.608 11.7793 284.164 12.3817 286.245 13.5865C288.326 14.7548 289.896 16.3612 290.954 18.4057C292.05 20.4502 292.597 22.7685 292.597 25.3606C292.597 26.0543 292.542 26.748 292.433 27.4416C292.323 28.1353 292.177 28.8837 291.995 29.6869H269.542L269.98 23.6629H287.723L283.616 26.4011C284.091 24.8677 284.182 23.4987 283.89 22.2939C283.598 21.0891 282.977 20.1398 282.028 19.4462C281.115 18.716 279.947 18.3509 278.523 18.3509C276.661 18.3509 275.182 18.8255 274.087 19.7747C272.992 20.724 272.189 21.9835 271.678 23.5534C271.203 25.1233 270.966 26.8575 270.966 28.7559C270.966 30.2528 271.221 31.5489 271.732 32.6441C272.244 33.7029 272.992 34.5061 273.978 35.0537C274.963 35.6014 276.15 35.8752 277.537 35.8752C279.034 35.8752 280.348 35.5649 281.48 34.9442C282.612 34.3235 283.488 33.5021 284.109 32.4799L290.571 35.8204C289.877 37.2808 288.873 38.5586 287.559 39.6538C286.245 40.7126 284.711 41.5341 282.959 42.1182C281.243 42.7023 279.381 42.9944 277.373 42.9944Z" fill="#474747"/>
<path id="Vector_3" d="M248.309 42.3372L252.471 12.4364H260.74L256.578 42.3372H248.309ZM252.854 9.75296L254.004 1.53845H262.273L261.123 9.75296H252.854Z" fill="#474747"/>
<path id="Vector_4" d="M239.777 42.6657C236.089 42.6657 233.351 41.6617 231.562 39.6537C229.773 37.6092 229.116 34.8346 229.591 31.3297L231.234 19.5556H226.195L227.181 12.4363H227.291C228.824 12.4363 230.083 12.0165 231.069 11.1768C232.091 10.3371 232.712 9.15054 232.931 7.61717L233.205 5.64569H241.529L240.543 12.4363H247.443L246.458 19.5556H239.558L237.915 31.2202C237.769 32.2424 237.805 33.0821 238.024 33.7393C238.243 34.3599 238.663 34.8163 239.284 35.1084C239.941 35.4004 240.817 35.5465 241.912 35.5465C242.241 35.5465 242.551 35.5465 242.843 35.5465C243.172 35.51 243.574 35.4552 244.048 35.3822L243.446 42.3371C242.898 42.4832 242.277 42.5744 241.584 42.611C240.927 42.6475 240.324 42.6657 239.777 42.6657Z" fill="#474747"/>
<path id="Vector_5" d="M193.285 42.3373L197.447 12.4365H205.114L204.347 18.3509L204.019 16.8175C204.968 15.0286 206.228 13.7508 207.797 12.9841C209.404 12.1809 211.211 11.7793 213.219 11.7793C215.519 11.7793 217.472 12.3269 219.079 13.4222C220.685 14.481 221.853 15.9231 222.584 17.7485C223.35 19.574 223.569 21.6184 223.241 23.882L220.667 42.3373H212.452L214.862 24.8677C215.117 23.1518 214.807 21.7827 213.931 20.7605C213.055 19.7017 211.813 19.1724 210.207 19.1724C209.148 19.1724 208.163 19.4097 207.25 19.8843C206.374 20.3589 205.643 21.0161 205.059 21.8558C204.475 22.6955 204.092 23.6995 203.909 24.8677L201.5 42.3373H193.285Z" fill="#474747"/>
<path id="Vector_6" d="M174.917 42.9944C172.069 42.9944 169.495 42.3738 167.195 41.1325C164.895 39.8547 163.069 38.1022 161.719 35.8752C160.368 33.6481 159.692 31.1108 159.692 28.2631C159.692 25.963 160.13 23.809 161.007 21.801C161.883 19.793 163.106 18.0406 164.676 16.5437C166.246 15.0468 168.053 13.8786 170.097 13.0389C172.142 12.1991 174.332 11.7793 176.669 11.7793C179.517 11.7793 182.091 12.4182 184.391 13.696C186.691 14.9373 188.498 16.6715 189.812 18.8985C191.163 21.0891 191.838 23.6264 191.838 26.5106C191.838 28.8107 191.4 30.9647 190.524 32.9727C189.648 34.9442 188.425 36.6966 186.855 38.23C185.285 39.7269 183.478 40.8952 181.433 41.7349C179.389 42.5746 177.217 42.9944 174.917 42.9944ZM175.026 35.6014C176.669 35.6014 178.111 35.1998 179.352 34.3966C180.594 33.5569 181.561 32.4433 182.255 31.056C182.949 29.6687 183.295 28.117 183.295 26.4011C183.295 24.9773 183.022 23.736 182.474 22.6772C181.926 21.5819 181.141 20.724 180.119 20.1033C179.133 19.4827 177.947 19.1724 176.559 19.1724C174.917 19.1724 173.456 19.5922 172.178 20.4319C170.937 21.2351 169.97 22.3304 169.276 23.7177C168.582 25.105 168.235 26.6567 168.235 28.3726C168.235 29.7964 168.509 31.056 169.057 32.1513C169.605 33.21 170.389 34.0497 171.412 34.6704C172.434 35.291 173.639 35.6014 175.026 35.6014Z" fill="#474747"/>
<path id="Vector_7" d="M137.635 42.3374L141.797 12.4366H149.518L148.533 19.6106L148.095 18.5701C149.117 16.0509 150.431 14.3533 152.038 13.4771C153.68 12.5643 155.542 12.108 157.623 12.108H159.376L158.39 19.2272H155.816C153.808 19.2272 152.092 19.8661 150.668 21.1439C149.281 22.4217 148.405 24.3019 148.04 26.7846L145.904 42.3374H137.635Z" fill="#474747"/>
<path id="Vector_8" d="M54.2617 42.3373L58.4237 12.4365H66.0906L65.1596 19.3914L64.3382 18.2414C65.2874 15.9048 66.5652 14.2436 68.1716 13.2579C69.778 12.2722 71.6947 11.7793 73.9218 11.7793C76.4044 11.7793 78.5036 12.4182 80.2196 13.696C81.9355 14.9373 83.049 16.6167 83.5601 18.7342L80.6029 18.9533C81.9902 16.3612 83.7062 14.5175 85.7507 13.4222C87.7952 12.3269 90.0587 11.7793 92.5413 11.7793C94.7683 11.7793 96.6668 12.2722 98.2367 13.2579C99.8066 14.2436 100.957 15.6127 101.687 17.3652C102.453 19.0811 102.673 21.0708 102.344 23.3344L99.7153 42.3373H91.5008L93.9104 24.8677C94.0929 23.6995 94.0199 22.6955 93.6913 21.8558C93.3993 21.0161 92.9064 20.3589 92.2127 19.8843C91.5191 19.4097 90.6246 19.1724 89.5293 19.1724C88.4706 19.1724 87.5031 19.4097 86.6269 19.8843C85.7872 20.3589 85.0935 21.0161 84.5459 21.8558C84.0347 22.6955 83.6879 23.6995 83.5054 24.8677L81.0958 42.3373H72.8813L75.2908 24.8677C75.4734 23.6995 75.4004 22.6955 75.0718 21.8558C74.7797 21.0161 74.2869 20.3589 73.5932 19.8843C72.8995 19.4097 72.005 19.1724 70.9098 19.1724C69.851 19.1724 68.8835 19.4097 68.0073 19.8843C67.1676 20.3589 66.4739 21.0161 65.9263 21.8558C65.4152 22.6955 65.0684 23.6995 64.8858 24.8677L62.4762 42.3373H54.2617Z" fill="#00BBF2"/>
<path id="Vector_9" d="M33.1348 42.3374L37.2968 12.4366H45.0184L44.0327 19.6106L43.5946 18.5701C44.6168 16.0509 45.9311 14.3533 47.5375 13.4771C49.1804 12.5643 51.0424 12.108 53.1234 12.108H54.8758L53.8901 19.2272H51.3162C49.3082 19.2272 47.5923 19.8661 46.1684 21.1439C44.7811 22.4217 43.9049 24.3019 43.5398 26.7846L41.404 42.3374H33.1348Z" fill="#00BBF2"/>
<path id="Vector_10" d="M15.0599 42.9944C12.1757 42.9944 9.58359 42.3555 7.28353 41.0777C5.01998 39.7999 3.23104 38.0475 1.91672 35.8204C0.638906 33.5934 0 31.0743 0 28.2631C0 25.963 0.438107 23.809 1.31432 21.801C2.19053 19.793 3.39533 18.0406 4.9287 16.5437C6.46208 15.0468 8.23276 13.8786 10.2408 13.0389C12.2852 12.1991 14.4758 11.7793 16.8124 11.7793C19.0759 11.7793 21.1387 12.1809 23.0006 12.9841C24.8626 13.7508 26.4325 14.8278 27.7103 16.2151C28.9881 17.6025 29.8643 19.2271 30.3389 21.0891L23.0554 23.9368C22.6538 22.4399 21.8871 21.2716 20.7553 20.4319C19.6235 19.5922 18.2727 19.1724 16.7028 19.1724C15.0599 19.1724 13.6178 19.5922 12.3765 20.4319C11.1717 21.2716 10.2225 22.3851 9.52883 23.7725C8.87167 25.1598 8.54309 26.6567 8.54309 28.2631C8.54309 29.7234 8.8169 31.0012 9.36454 32.0965C9.91217 33.1918 10.6789 34.0497 11.6646 34.6704C12.6868 35.291 13.8551 35.6014 15.1695 35.6014C16.8854 35.6014 18.3822 35.145 19.66 34.2323C20.9379 33.3196 21.8871 32.1148 22.5077 30.6179L29.4627 33.9585C28.769 35.7109 27.7103 37.2808 26.2864 38.6681C24.8991 40.0189 23.2379 41.0777 21.303 41.8444C19.368 42.6111 17.287 42.9944 15.0599 42.9944Z" fill="#00BBF2"/>
</g>
<path id="Vector 641" d="M135.844 19.8788H106.638L137.121 10.3031L135.844 19.8788Z" fill="#00BBF2"/>
</g>
<g id="TM">
<path id="Vector_11" d="M331.237 24.5269V12H333.732L336.698 20.8696C336.971 21.6956 337.17 22.3137 337.296 22.7239C337.438 22.2681 337.66 21.5988 337.962 20.7158L340.961 12H343.192V24.5269H341.594V14.0422L337.954 24.5269H336.458L332.835 13.8628V24.5269H331.237Z" fill="#474747"/>
<path id="Vector_12" d="M324.127 24.5269V13.4783H320V12H329.929V13.4783H325.785V24.5269H324.127Z" fill="#474747"/>
</g>
</g>
</svg>
